<svg version="1" xmlns="http://www.w3.org/2000/svg" width="682.667" height="682.667"
     viewBox="0 0 512.000000 512.000000">
    <path d="M40.4 1.5C21.3 5.6 5.5 21.6 1.4 40.9c-2.1 9.9-2.1 420.3 0 430.2 4.2 19.5 20 35.3 39.5 39.5 9.9 2.1 420.3 2.1 430.2 0 19.5-4.2 35.3-20 39.5-39.5 2.1-9.9 2.1-420.3 0-430.2-4.2-19.5-20-35.3-39.5-39.5-9.5-2-421.4-1.9-430.7.1zm162.1 133c23.9 5.1 37.6 22.1 40 50 1.9 21.3-5.3 93-12.6 127.4-4.2 19.2-11.2 35.6-19 44.5-8.4 9.5-23.2 16.5-40.8 19.1-13 2-64.9 4.1-66.3 2.7-1.2-1.2 25.6-238.8 27.3-240.8 3-3.6 57.3-5.9 71.4-2.9zm131.3 1.7c.7.9-.7 16.8-4.8 52.8-3.2 28.3-5.7 51.6-5.6 51.7.1.2 10.3-22.9 22.6-51.3 12.3-28.3 23-52 23.8-52.7.9-.7 7.5-1.1 19.9-1.1 16.1-.1 18.7.1 19.6 1.5.8 1.3-4.5 13.3-24.8 55.9-14.2 29.9-25.8 54.8-25.8 55.5 0 .7 8.4 29.4 18.8 63.9 16.2 54 18.7 62.9 17.4 64-1 1-6.5 1.6-20.1 2.1-17.5.7-18.7.6-19.5-1.1-.5-1.1-8.3-27.6-17.3-59.1-9.1-31.5-16.5-57.1-16.7-56.9-.1.1-3.2 25.8-6.7 57-3.5 31.1-6.9 57.3-7.5 58-1.7 2-35.8 3.4-37.6 1.5-1.1-1.2 1-21.8 12-119.7 7.4-65 13.6-119.1 14-120.2.7-2.3 3.2-2.6 23.1-2.8 10.3-.2 14.4.1 15.2 1z"/>
    <path d="M168.8 169.7c-1.6.2-2.8.8-2.8 1.3 0 1.4-18 161.3-18.6 165.1l-.5 3.6 6.3-.9c19.6-2.6 27.5-7 33.2-18.4 3.3-6.6 5-13.9 8-35.4 6.2-43.9 9.3-90.4 6.6-100.1-2.7-9.7-9.7-14.6-22-15.3-4.1-.2-8.7-.2-10.2.1z"/>
</svg>